<svg width="393" height="214" viewBox="0 0 393 214" fill="none" xmlns="http://www.w3.org/2000/svg">
<path d="M393 62.5006C393 62.4465 392.975 62.4045 392.962 62.3504C392.95 62.2843 392.95 62.2182 392.925 62.1521C392.912 62.1161 392.906 62.086 392.887 62.056C392.881 62.0259 392.874 62.0019 392.862 61.9779C392.83 61.8998 392.774 61.8457 392.736 61.7736C392.698 61.7255 392.667 61.6774 392.623 61.6354C392.61 61.6174 392.61 61.5993 392.591 61.5813C392.585 61.5753 392.572 61.5693 392.56 61.5633C392.56 61.5633 392.56 61.5573 392.553 61.5513C392.547 61.5453 392.541 61.5272 392.534 61.5212C392.459 61.4551 392.384 61.4071 392.302 61.365C392.264 61.341 392.245 61.3049 392.207 61.2869L281.37 0.193869C281.351 0.181852 281.326 0.181854 281.301 0.169837C281.213 0.127779 281.125 0.103743 281.03 0.0797097C280.967 0.0556762 280.917 0.0196255 280.86 0.0076088C280.848 0.0076088 280.835 0.0136196 280.823 0.0136196C280.785 0.00761123 280.747 0.001598 280.709 0.001598C280.621 -0.00441036 280.552 0.00760793 280.464 0.0196247C280.433 0.0196247 280.401 0.0196247 280.376 0.0196247C280.319 0.0316414 280.263 0.0196238 280.219 0.0316405C280.175 0.0436572 280.131 0.0616821 280.093 0.0736989C280.068 0.0797072 280.049 0.0737013 280.03 0.0797097L143.85 48.1646C143.793 48.1827 143.755 48.2247 143.705 48.2548C143.655 48.2788 143.592 48.2848 143.548 48.3149C143.541 48.3209 143.541 48.3209 143.535 48.3209L-216.17 273.719C-216.182 273.731 -216.189 273.743 -216.207 273.755C-216.245 273.785 -216.283 273.821 -216.321 273.851C-216.358 273.881 -216.402 273.899 -216.434 273.935C-216.472 273.971 -216.491 274.019 -216.522 274.055C-216.566 274.103 -216.61 274.151 -216.641 274.193C-216.654 274.205 -216.667 274.217 -216.673 274.229C-216.692 274.253 -216.692 274.289 -216.704 274.313C-216.723 274.349 -216.755 274.379 -216.774 274.416C-216.767 274.452 -216.767 274.506 -216.786 274.554C-216.805 274.614 -216.83 274.674 -216.843 274.728C-216.849 274.782 -216.855 274.836 -216.855 274.884C-216.855 274.914 -216.874 274.938 -216.874 274.974V317.351C-216.874 317.411 -216.843 317.465 -216.836 317.52C-216.83 317.592 -216.83 317.664 -216.811 317.736C-216.83 317.772 -216.862 317.808 -216.88 317.844C-216.899 317.892 -216.899 317.946 -216.918 317.994C-216.931 318.054 -216.956 318.108 -216.969 318.168C-216.981 318.217 -216.981 318.265 -216.981 318.313C-216.981 318.343 -217 318.367 -217 318.403V360.792V364.613C-217 364.679 -216.969 364.739 -216.962 364.793C-216.943 364.901 -216.931 364.998 -216.893 365.1C-216.862 365.19 -216.818 365.268 -216.761 365.352C-216.711 365.436 -216.66 365.508 -216.597 365.586C-216.522 365.665 -216.446 365.725 -216.352 365.791C-216.302 365.827 -216.264 365.881 -216.214 365.917L-202.231 373.632C-202.225 373.632 -202.225 373.632 -202.218 373.632C-202.193 373.644 -202.162 373.65 -202.137 373.662C-201.929 373.764 -201.696 373.83 -201.445 373.83C-201.224 373.83 -201.017 373.782 -200.822 373.704C-200.803 373.8 -200.79 373.89 -200.759 373.98C-200.721 374.076 -200.671 374.154 -200.627 374.238C-200.583 374.323 -200.526 374.401 -200.463 374.473C-200.394 374.557 -200.312 374.611 -200.224 374.677C-200.168 374.719 -200.136 374.767 -200.08 374.803L-161.685 395.995H-161.679C-161.654 396.007 -161.628 396.007 -161.603 396.019C-161.389 396.127 -161.157 396.193 -160.899 396.193C-160.672 396.193 -160.465 396.145 -160.263 396.067C-160.251 396.169 -160.238 396.259 -160.201 396.361C-160.169 396.451 -160.125 396.53 -160.068 396.614C-160.018 396.698 -159.968 396.77 -159.905 396.848C-159.829 396.926 -159.754 396.986 -159.66 397.052C-159.609 397.088 -159.572 397.142 -159.521 397.178L-121.133 418.364C-121.108 418.376 -121.082 418.37 -121.057 418.382C-120.843 418.49 -120.604 418.562 -120.347 418.562C-120.233 418.562 -120.133 418.52 -120.026 418.502C-119.988 418.586 -119.944 418.658 -119.894 418.736C-119.843 418.821 -119.793 418.893 -119.73 418.971C-119.667 419.049 -119.579 419.109 -119.491 419.175C-119.434 419.211 -119.403 419.265 -119.353 419.301L-105.42 427.01C-105.395 427.022 -105.37 427.016 -105.345 427.028C-105.131 427.136 -104.892 427.208 -104.634 427.208C-104.395 427.208 -104.175 427.148 -103.973 427.058C-103.955 427.052 -103.936 427.058 -103.923 427.046L304.712 228.674C304.769 228.65 304.807 228.602 304.851 228.566C304.92 228.524 304.989 228.5 305.052 228.446L392.302 153.341C392.314 153.335 392.321 153.317 392.327 153.311C392.415 153.233 392.465 153.143 392.534 153.047C392.585 152.975 392.648 152.914 392.679 152.836C392.717 152.764 392.717 152.686 392.742 152.608C392.774 152.494 392.811 152.38 392.818 152.26C392.818 152.247 392.824 152.235 392.824 152.223V148.342V105.959C392.824 105.929 392.805 105.905 392.805 105.881C392.805 105.851 392.818 105.827 392.818 105.797C392.811 105.761 392.792 105.737 392.78 105.701C392.78 105.695 392.78 105.689 392.78 105.677C392.805 105.641 392.83 105.605 392.849 105.569C392.887 105.49 392.893 105.406 392.918 105.322C392.95 105.214 392.981 105.112 392.987 104.998C392.987 104.98 393 104.962 393 104.944V62.5547C393 62.5427 392.994 62.5306 392.994 62.5126C393 62.5306 393 62.5186 393 62.5006ZM281.741 3.86498L386.075 61.365L380.728 61.6474L288.515 10.8407H288.509L281.2 6.77903L281.741 3.86498ZM-102.627 333.562L-102.483 330.444L-95.2302 326.923L280.791 144.328C280.791 144.328 280.791 144.328 280.797 144.328C280.797 144.322 280.797 144.322 280.804 144.322L288.446 140.555L297.466 136.193L300.624 137.701L-102.627 333.562ZM302.542 140.141V179.171L302.247 179.321C302.24 179.321 302.24 179.321 302.24 179.321L-102.741 375.999V336.987L302.542 140.141ZM281.659 140.531V137.641L284.439 139.161L281.659 140.531ZM296.573 133.261L287.779 137.521L283.238 135.04L298.158 126.772L301.819 128.785L296.573 133.261ZM298.932 123.738C298.875 123.708 298.806 123.702 298.756 123.678C298.649 123.636 298.554 123.6 298.441 123.576C298.341 123.558 298.246 123.558 298.145 123.558C298.045 123.558 297.951 123.558 297.85 123.576C297.737 123.6 297.642 123.636 297.542 123.684C297.479 123.708 297.416 123.708 297.359 123.744L279.3 133.748C279.269 133.766 279.25 133.79 279.225 133.808C279.168 133.844 279.112 133.886 279.068 133.934C279.005 133.982 278.954 134.03 278.91 134.078C278.866 134.132 278.822 134.18 278.785 134.234C278.766 134.258 278.734 134.27 278.722 134.301C278.709 134.331 278.709 134.355 278.697 134.385C278.659 134.445 278.634 134.511 278.608 134.565C278.583 134.637 278.571 134.697 278.558 134.769C278.539 134.835 278.533 134.895 278.527 134.961C278.52 134.991 278.508 135.016 278.508 135.046V142.075L-95.897 323.882L-102.803 320.109C-102.86 320.073 -102.929 320.073 -102.986 320.049C-103.087 320.007 -103.175 319.971 -103.282 319.953C-103.382 319.929 -103.477 319.929 -103.577 319.929C-103.684 319.929 -103.772 319.929 -103.873 319.953C-103.986 319.971 -104.08 320.007 -104.187 320.049C-104.244 320.073 -104.307 320.073 -104.363 320.109L-111.169 323.804L-112.132 323.276L282.005 105.52L310.518 121.25L304.278 126.664L298.932 123.738ZM-187.128 274.343C-187.135 274.277 -187.141 274.217 -187.154 274.151C-187.172 274.079 -187.191 274.019 -187.216 273.953C-187.235 273.881 -187.26 273.827 -187.292 273.767C-187.304 273.743 -187.305 273.707 -187.323 273.683C-187.336 273.659 -187.361 273.64 -187.38 273.616C-187.424 273.562 -187.462 273.508 -187.512 273.46C-187.562 273.412 -187.613 273.352 -187.669 273.31C-187.72 273.268 -187.77 273.232 -187.82 273.19C-187.852 273.178 -187.864 273.148 -187.896 273.13L-193.268 270.174L139.925 61.4792V100.269L-167.478 292.747L-187.103 281.98V274.434C-187.11 274.398 -187.128 274.373 -187.128 274.343ZM-190.255 277.035V280.232L-193.129 278.621L-190.255 277.035ZM-196.268 276.879L-200.419 274.626L-200.331 274.572L-196.211 272.012L-191.827 274.428L-196.268 276.879ZM139.862 104.805V132.059L-140.487 307.69L-163.559 294.958L139.862 104.805ZM141.485 134.631L146.592 137.467L-132.725 311.938L-137.43 309.366L141.485 134.631ZM143.063 101.128C143.07 101.104 143.076 101.092 143.076 101.074V61.3169L147.511 63.7984V134.499L143.007 132.005V102.09L143.07 101.182C143.076 101.158 143.063 101.14 143.063 101.128ZM271.142 54.2511L271.079 13.6766L276.3 16.5486V87.249L271.186 84.3891L271.142 54.6897C271.155 54.6116 271.186 54.5515 271.186 54.4734C271.186 54.3953 271.155 54.3172 271.142 54.2511ZM274.13 89.5082L168.777 126.856V122.494L269.463 86.9006L274.13 89.5082ZM276.124 92.0017V100.335L159.223 141.781V136.397V133.447L276.124 92.0017ZM168.777 119.292V91.6472L267.997 56.5944L268.041 84.2028L168.777 119.292ZM168.777 87.4413V52.9353C168.777 52.8992 168.758 52.8752 168.758 52.8452C168.752 52.7791 168.746 52.719 168.733 52.6529C168.714 52.5808 168.696 52.5207 168.67 52.4546C168.645 52.3825 168.62 52.3284 168.589 52.2684C168.576 52.2443 168.576 52.2083 168.557 52.1842C168.545 52.1602 168.519 52.1422 168.501 52.1181C168.457 52.0641 168.419 52.01 168.368 51.9619C168.318 51.9139 168.268 51.8538 168.211 51.8117C168.161 51.7697 168.111 51.7276 168.054 51.6915C168.029 51.6795 168.016 51.6495 167.985 51.6315L164.594 49.7569L267.934 13.232L267.991 52.3344L168.777 87.4413ZM165.632 55.5369V89.5983V90.6017V121.443V126.231L157.04 131.002C156.99 131.02 156.946 131.044 156.908 131.068C156.87 131.08 156.832 131.08 156.795 131.104L150.656 134.505V63.8044L165.632 55.5369ZM149.089 61.2028L144.491 58.6252L150.907 54.6116L160.77 51.1147L164.066 52.9353L149.089 61.2028ZM156.078 135.13V136.355C156.078 136.373 156.065 136.385 156.065 136.403C156.065 136.415 156.078 136.434 156.078 136.452V143.121L-122.919 317.363L-129.675 313.626L156.078 135.13ZM158.361 145.29L275.206 103.856L-117.422 320.398L-119.875 319.04L158.361 145.29ZM282.791 102.486L281.087 101.507C281.08 101.507 281.074 101.507 281.074 101.507C281.068 101.501 281.062 101.495 281.062 101.495L279.263 100.509V92.4403L318.764 114.179L312.971 119.129L282.791 102.486ZM286.163 56.0416V85.2783L279.451 87.7117V16.7169L286.163 14.3135V54.4674V55.0262C286.031 55.3627 286.031 55.7172 286.163 56.0416ZM281.483 90.1931L287.465 88.0241L325.073 108.765L321.243 112.07L281.483 90.1931ZM289.308 85.5607V58.1866L346.881 89.9288L327.533 106.638L289.308 85.5607ZM289.308 53.5962V14.7401L369.393 58.8715L364.525 62.9933C364.512 63.0053 364.506 63.0173 364.493 63.0293C364.424 63.0894 364.374 63.1615 364.324 63.2336C364.286 63.2817 364.235 63.3117 364.204 63.3658C364.191 63.3778 364.191 63.4018 364.179 63.4139C364.166 63.4439 364.147 63.4739 364.128 63.498C364.097 63.5761 364.091 63.6602 364.066 63.7383C364.04 63.8224 364.009 63.8945 364.003 63.9786C363.996 64.0147 363.996 64.0387 363.99 64.0748C363.99 64.0868 363.984 64.1048 363.984 64.1228V75.2864L350.196 87.1769L289.308 53.5962ZM367.135 66.7185L371.268 69.0016L367.135 72.5706V66.7185ZM368.236 63.8585L372.161 60.5359L377.608 63.5521L373.689 66.8627L368.236 63.8585ZM284.081 11.8501L278.017 14.0191L273.193 11.3754L279.319 9.20641L284.081 11.8501ZM278.564 3.80489L278.074 6.43655L269.004 9.65103L268.047 9.93343C267.915 9.96948 267.808 10.0536 267.695 10.1137L160.374 48.0445L150.347 51.6014L147.819 49.9611L278.564 3.80489ZM144.384 51.3791L147.309 53.2717L140.642 57.4355H140.636L-197.111 268.996L-202.042 272.054C-202.048 272.054 -202.048 272.06 -202.055 272.066C-202.055 272.066 -202.055 272.066 -202.061 272.066L-203.904 273.238L-209.854 273.364L144.384 51.3791ZM-203.017 369.72L-213.855 363.742V363.381L-203.017 369.306V369.72ZM-162.465 392.089L-197.715 372.634V372.28L-162.465 391.735V392.089ZM-121.913 414.459L-157.156 395.009V394.649L-121.913 414.104V414.459ZM-106.2 423.104L-116.981 417.132V416.778L-106.2 422.75V423.104ZM-106.011 419.385L-117.761 412.872C-117.774 412.872 -117.774 412.872 -117.786 412.872C-117.786 412.866 -117.793 412.86 -117.799 412.86L-119.56 411.935L-157.942 390.743C-157.949 390.743 -157.949 390.743 -157.949 390.743L-160.106 389.572L-198.482 368.398C-198.482 368.392 -198.482 368.392 -198.482 368.392L-200.639 367.161C-200.646 367.155 -200.652 367.155 -200.658 367.149C-200.665 367.149 -200.665 367.143 -200.671 367.143L-213.861 359.933V321.016L-106.018 380.499V419.385H-106.011ZM-106.011 375.897L-212.729 317.045C-212.729 317.045 -212.735 317.045 -212.742 317.045C-212.742 317.045 -212.742 317.039 -212.748 317.033L-212.786 317.015C-212.842 316.985 -212.893 316.949 -212.949 316.925L-213.729 316.51V277.582L-106.011 336.999V375.897ZM-105.854 333.616L-209.647 276.356L-203.973 276.236L-197.104 279.967C-197.004 280.021 -196.903 280.015 -196.803 280.051L-189.475 284.143C-189.475 284.143 -189.475 284.143 -189.468 284.143C-189.468 284.149 -189.468 284.149 -189.462 284.149L-168.246 295.793L-167.415 296.304C-167.409 296.31 -167.396 296.31 -167.384 296.31C-167.371 296.322 -167.359 296.334 -167.346 296.346L-141.223 310.76H-141.217L-133.468 314.996V315.002L-123.661 320.422L-119.019 322.993C-118.994 323.011 -118.975 323.041 -118.944 323.059L-118.39 323.42C-118.378 323.432 -118.365 323.426 -118.353 323.432C-118.334 323.444 -118.321 323.462 -118.302 323.474L-116.227 324.633L-116.201 324.645C-116.195 324.651 -116.195 324.651 -116.189 324.651L-112.012 326.947L-105.647 330.486L-105.854 333.616ZM-104.017 327.764L-108.018 325.541L-103.59 323.143L-99.2684 325.505L-104.017 327.764ZM302.435 226.421L-103.055 423.267V423.02L237.327 257.7L302.435 226.084V226.421ZM302.611 222.623L235.905 255.027L63.6385 338.669C63.6134 338.681 63.5945 338.705 63.5693 338.717L-102.866 419.548V380.547L302.611 183.653V222.623ZM303.857 135.887L300.234 134.162L305.543 129.632C305.568 129.608 305.593 129.602 305.618 129.584C305.637 129.566 305.643 129.548 305.656 129.53L314.236 122.086L322.494 115.032C322.494 115.026 322.494 115.026 322.494 115.026L328.784 109.612L350.561 90.8L351.372 90.1931C351.385 90.1811 351.391 90.1631 351.404 90.1511C351.423 90.1391 351.441 90.1391 351.454 90.127L366.613 77.0528C366.619 77.0528 366.619 77.0528 366.619 77.0528L374.916 69.8849C374.922 69.8849 374.922 69.8789 374.929 69.8789L381.08 64.6336L387.068 64.3091L303.857 135.887ZM389.691 147.681L305.757 220.022V181.646L389.691 109.342V147.681ZM389.861 104.283L389.622 104.481C389.603 104.493 389.597 104.511 389.585 104.523C389.572 104.535 389.547 104.541 389.534 104.553L389.094 104.98L305.687 176.696V138.362L389.861 65.9614V104.283Z" fill="#AAAABB"/>
</svg>
