<svg width="448" height="289" viewBox="0 0 448 289" fill="none" xmlns="http://www.w3.org/2000/svg">
<path d="M447.979 76.0232C447.979 75.9574 447.949 75.9062 447.933 75.8405C447.918 75.7601 447.918 75.6797 447.887 75.5993C447.872 75.5554 447.865 75.5189 447.842 75.4824C447.834 75.4458 447.826 75.4166 447.811 75.3874C447.773 75.2923 447.704 75.2266 447.658 75.1389C447.612 75.0804 447.574 75.0219 447.52 74.9708C447.505 74.9489 447.505 74.9269 447.482 74.905C447.474 74.8977 447.459 74.8904 447.444 74.8831C447.444 74.8831 447.444 74.8758 447.436 74.8685C447.428 74.8612 447.421 74.8392 447.413 74.8319C447.321 74.7515 447.229 74.6931 447.13 74.6419C447.084 74.6127 447.061 74.5688 447.015 74.5469L312.197 0.235814C312.174 0.221198 312.143 0.2212 312.113 0.206583C312.005 0.155425 311.898 0.126189 311.784 0.0969556C311.707 0.0677223 311.646 0.0238717 311.577 0.00925503C311.562 0.00925503 311.546 0.0165663 311.531 0.0165663C311.485 0.00925799 311.439 0.00194375 311.393 0.00194375C311.286 -0.00536458 311.202 0.00925397 311.095 0.0238706C311.057 0.0238706 311.019 0.0238706 310.988 0.0238706C310.919 0.0384873 310.85 0.0238696 310.797 0.0384862C310.743 0.0531029 310.69 0.0750276 310.644 0.0896443C310.613 0.0969526 310.59 0.0896473 310.567 0.0969556L144.923 58.5855C144.854 58.6074 144.808 58.6586 144.747 58.6951C144.686 58.7244 144.609 58.7317 144.556 58.7682C144.548 58.7755 144.548 58.7755 144.54 58.7755L-292.99 332.94C-293.005 332.955 -293.013 332.969 -293.036 332.984C-293.082 333.021 -293.128 333.064 -293.174 333.101C-293.22 333.137 -293.273 333.159 -293.311 333.203C-293.357 333.247 -293.38 333.306 -293.419 333.349C-293.472 333.408 -293.526 333.466 -293.564 333.517C-293.579 333.532 -293.594 333.547 -293.602 333.561C-293.625 333.591 -293.625 333.634 -293.64 333.664C-293.663 333.708 -293.702 333.744 -293.725 333.788C-293.717 333.832 -293.717 333.897 -293.74 333.956C-293.763 334.029 -293.793 334.102 -293.809 334.168C-293.816 334.234 -293.824 334.299 -293.824 334.358C-293.824 334.394 -293.847 334.424 -293.847 334.468V386.013C-293.847 386.086 -293.809 386.152 -293.801 386.218C-293.793 386.306 -293.793 386.393 -293.77 386.481C-293.793 386.525 -293.832 386.569 -293.855 386.613C-293.878 386.671 -293.878 386.737 -293.901 386.795C-293.916 386.868 -293.946 386.934 -293.962 387.007C-293.977 387.066 -293.977 387.124 -293.977 387.183C-293.977 387.219 -294 387.248 -294 387.292V438.852V443.501C-294 443.581 -293.962 443.654 -293.954 443.72C-293.931 443.851 -293.916 443.968 -293.87 444.092C-293.832 444.202 -293.778 444.297 -293.709 444.399C-293.648 444.502 -293.587 444.59 -293.51 444.685C-293.419 444.78 -293.327 444.853 -293.212 444.933C-293.151 444.977 -293.105 445.043 -293.044 445.086L-276.035 454.47C-276.028 454.47 -276.028 454.47 -276.02 454.47C-275.99 454.485 -275.951 454.492 -275.921 454.507C-275.668 454.631 -275.385 454.712 -275.079 454.712C-274.811 454.712 -274.559 454.653 -274.322 454.558C-274.299 454.675 -274.283 454.785 -274.245 454.894C-274.199 455.011 -274.138 455.106 -274.084 455.208C-274.031 455.311 -273.962 455.406 -273.886 455.494C-273.801 455.596 -273.702 455.662 -273.595 455.742C-273.526 455.793 -273.488 455.852 -273.419 455.896L-226.717 481.672H-226.709C-226.679 481.687 -226.648 481.687 -226.618 481.701C-226.357 481.833 -226.074 481.913 -225.761 481.913C-225.485 481.913 -225.233 481.855 -224.988 481.76C-224.973 481.884 -224.957 481.994 -224.911 482.118C-224.873 482.227 -224.82 482.322 -224.751 482.425C-224.69 482.527 -224.628 482.615 -224.552 482.71C-224.46 482.805 -224.368 482.878 -224.253 482.958C-224.192 483.002 -224.146 483.068 -224.085 483.112L-177.391 508.881C-177.36 508.896 -177.33 508.888 -177.299 508.903C-177.039 509.034 -176.748 509.122 -176.435 509.122C-176.297 509.122 -176.175 509.071 -176.044 509.049C-175.999 509.151 -175.945 509.239 -175.884 509.334C-175.823 509.436 -175.761 509.524 -175.685 509.619C-175.608 509.714 -175.501 509.787 -175.394 509.867C-175.325 509.911 -175.287 509.977 -175.226 510.021L-158.279 519.398C-158.248 519.412 -158.218 519.405 -158.187 519.419C-157.927 519.551 -157.636 519.639 -157.322 519.639C-157.032 519.639 -156.764 519.566 -156.519 519.456C-156.496 519.449 -156.473 519.456 -156.458 519.441L340.59 278.15C340.659 278.12 340.704 278.062 340.758 278.018C340.842 277.967 340.926 277.938 341.003 277.872L447.13 186.518C447.145 186.51 447.153 186.489 447.161 186.481C447.268 186.386 447.329 186.277 447.413 186.16C447.474 186.072 447.551 185.999 447.589 185.904C447.635 185.816 447.635 185.721 447.665 185.626C447.704 185.487 447.75 185.348 447.757 185.202C447.757 185.188 447.765 185.173 447.765 185.158V180.437V128.884C447.765 128.848 447.742 128.819 447.742 128.789C447.742 128.753 447.757 128.724 447.757 128.687C447.75 128.643 447.727 128.614 447.711 128.57C447.711 128.563 447.711 128.555 447.711 128.541C447.742 128.497 447.773 128.453 447.796 128.409C447.841 128.314 447.849 128.212 447.88 128.11C447.918 127.978 447.956 127.854 447.964 127.715C447.964 127.693 447.979 127.671 447.979 127.649V76.089C447.979 76.0743 447.972 76.0597 447.972 76.0378C447.979 76.0597 447.979 76.0451 447.979 76.0232ZM312.648 4.7012L439.555 74.6419L433.052 74.9854L320.888 13.1862H320.881L311.99 8.24574L312.648 4.7012ZM-154.882 405.731L-154.706 401.938L-145.884 397.655L311.493 175.555C311.493 175.555 311.493 175.555 311.501 175.555C311.501 175.548 311.501 175.548 311.508 175.548L320.804 170.966L331.776 165.66L335.617 167.494L-154.882 405.731ZM337.95 170.461V217.936L337.59 218.119C337.583 218.119 337.583 218.119 337.583 218.119L-155.019 457.35V409.897L337.95 170.461ZM312.549 170.936V167.421L315.93 169.27L312.549 170.936ZM330.689 162.093L319.993 167.275L314.469 164.257L332.617 154.2L337.07 156.649L330.689 162.093ZM333.558 150.51C333.49 150.473 333.405 150.466 333.344 150.437C333.214 150.385 333.099 150.342 332.962 150.312C332.839 150.29 332.724 150.29 332.602 150.29C332.48 150.29 332.365 150.29 332.242 150.312C332.105 150.342 331.99 150.385 331.867 150.444C331.791 150.473 331.714 150.473 331.646 150.517L309.68 162.685C309.641 162.707 309.618 162.736 309.588 162.758C309.519 162.802 309.45 162.853 309.397 162.912C309.32 162.97 309.259 163.029 309.205 163.087C309.152 163.153 309.098 163.212 309.052 163.277C309.029 163.307 308.991 163.321 308.976 163.358C308.96 163.394 308.96 163.423 308.945 163.46C308.899 163.533 308.869 163.613 308.838 163.679C308.807 163.767 308.792 163.84 308.777 163.928C308.754 164.008 308.746 164.081 308.739 164.162C308.731 164.198 308.716 164.227 308.716 164.264V172.815L-146.695 393.957L-155.096 389.368C-155.165 389.324 -155.249 389.324 -155.318 389.295C-155.44 389.243 -155.547 389.2 -155.677 389.178C-155.8 389.149 -155.915 389.148 -156.037 389.148C-156.167 389.148 -156.274 389.149 -156.397 389.178C-156.534 389.2 -156.649 389.243 -156.779 389.295C-156.848 389.324 -156.925 389.324 -156.993 389.368L-165.272 393.862L-166.442 393.219L312.969 128.351L347.652 147.484L340.062 154.069L333.558 150.51ZM-257.665 333.7C-257.673 333.62 -257.681 333.547 -257.696 333.466C-257.719 333.379 -257.742 333.306 -257.772 333.225C-257.795 333.137 -257.826 333.072 -257.864 332.999C-257.88 332.969 -257.88 332.926 -257.903 332.896C-257.918 332.867 -257.948 332.845 -257.971 332.816C-258.025 332.75 -258.071 332.684 -258.132 332.626C-258.193 332.567 -258.255 332.494 -258.323 332.443C-258.385 332.392 -258.446 332.348 -258.507 332.297C-258.545 332.282 -258.561 332.246 -258.599 332.224L-265.133 328.628L140.149 74.7808V121.963L-233.764 356.086L-257.635 342.989V333.81C-257.642 333.766 -257.665 333.737 -257.665 333.7ZM-261.468 336.974V340.862L-264.964 338.904L-261.468 336.974ZM-268.782 336.784L-273.832 334.044L-273.725 333.978L-268.713 330.865L-263.381 333.803L-268.782 336.784ZM140.072 127.481V160.632L-200.933 374.261L-228.997 358.775L140.072 127.481ZM142.046 163.76L148.259 167.209L-191.492 379.428L-197.215 376.3L142.046 163.76ZM143.966 123.008C143.974 122.979 143.982 122.965 143.982 122.943V74.5834L149.376 77.6018V163.599L143.898 160.566V124.178L143.974 123.074C143.982 123.045 143.966 123.023 143.966 123.008ZM299.756 65.9888L299.68 16.6357L306.03 20.1291V106.126L299.81 102.647L299.756 66.5224C299.772 66.4273 299.81 66.3543 299.81 66.2593C299.81 66.1643 299.772 66.0692 299.756 65.9888ZM303.39 108.874L175.244 154.303V148.997L297.713 105.702L303.39 108.874ZM305.816 111.907V122.044L163.622 172.457V165.908V162.32L305.816 111.907ZM175.244 145.101V111.476L295.931 68.8391L295.984 102.421L175.244 145.101ZM175.244 106.36V64.3883C175.244 64.3445 175.221 64.3152 175.221 64.2787C175.213 64.1983 175.206 64.1252 175.19 64.0448C175.167 63.9571 175.144 63.8841 175.114 63.8037C175.083 63.716 175.053 63.6502 175.014 63.5771C174.999 63.5479 174.999 63.504 174.976 63.4748C174.961 63.4455 174.93 63.4236 174.907 63.3944C174.854 63.3286 174.808 63.2628 174.746 63.2044C174.685 63.1459 174.624 63.0728 174.555 63.0217C174.494 62.9705 174.433 62.9193 174.364 62.8755C174.333 62.8609 174.318 62.8244 174.28 62.8024L170.156 60.5222L295.854 16.0949L295.923 63.6575L175.244 106.36ZM171.418 67.5528V108.984V110.204V147.718V153.543L160.967 159.345C160.906 159.367 160.852 159.397 160.806 159.426C160.76 159.44 160.715 159.44 160.669 159.47L153.201 163.606V77.6091L171.418 67.5528ZM151.296 74.4446L145.703 71.3093L153.507 66.4273L165.504 62.1739L169.513 64.3883L151.296 74.4446ZM159.796 164.366V165.857C159.796 165.879 159.781 165.894 159.781 165.916C159.781 165.93 159.796 165.952 159.796 165.974V174.086L-179.564 386.028L-187.781 381.482L159.796 164.366ZM162.574 176.725L304.699 126.326L-172.877 389.719L-175.861 388.067L162.574 176.725ZM313.926 124.66L311.852 123.469C311.845 123.469 311.837 123.469 311.837 123.469C311.83 123.462 311.822 123.454 311.822 123.454L309.634 122.256V112.441L357.682 138.882L350.635 144.904L313.926 124.66ZM318.027 68.1667V103.729L309.863 106.689V20.3337L318.027 17.4104V66.2519V66.9316C317.866 67.3409 317.866 67.7721 318.027 68.1667ZM312.335 109.707L319.611 107.069L365.356 132.297L360.697 136.317L312.335 109.707ZM321.852 104.073V70.7758L391.882 109.386L368.348 129.71L321.852 104.073ZM321.852 65.1922V17.9293L419.265 71.609L413.343 76.6225C413.328 76.6371 413.32 76.6517 413.305 76.6663C413.221 76.7394 413.159 76.8271 413.098 76.9148C413.052 76.9733 412.991 77.0098 412.953 77.0756C412.938 77.0902 412.938 77.1194 412.922 77.134C412.907 77.1706 412.884 77.2071 412.861 77.2364C412.823 77.3314 412.815 77.4337 412.785 77.5287C412.754 77.631 412.716 77.7187 412.708 77.821C412.7 77.8649 412.7 77.8941 412.693 77.938C412.693 77.9526 412.685 77.9745 412.685 77.9964V91.5753L395.914 106.038L321.852 65.1922ZM416.518 81.1536L421.545 83.9308L416.518 88.2719V81.1536ZM417.857 77.6749L422.631 73.6334L429.257 77.3021L424.491 81.329L417.857 77.6749ZM315.494 14.414L308.119 17.0523L302.25 13.8366L309.703 11.1983L315.494 14.414ZM308.784 4.62812L308.188 7.82916L297.155 11.7391L295.992 12.0826C295.831 12.1265 295.701 12.2288 295.564 12.3019L165.022 58.4393L152.826 62.7659L149.751 60.7707L308.784 4.62812ZM145.573 62.4955L149.131 64.7976L141.021 69.8623H141.013L-269.808 327.196L-275.806 330.916C-275.814 330.916 -275.814 330.923 -275.821 330.93C-275.821 330.93 -275.821 330.93 -275.829 330.93L-278.071 332.355L-285.308 332.509L145.573 62.4955ZM-276.992 449.713L-290.174 442.441V442.002L-276.992 449.208V449.713ZM-227.666 476.922L-270.542 453.257V452.826L-227.666 476.49V476.922ZM-178.34 504.13L-221.208 480.473V480.035L-178.34 503.699V504.13ZM-159.228 514.647L-172.341 507.383V506.952L-159.228 514.216V514.647ZM-158.998 510.123L-173.29 502.201C-173.305 502.201 -173.305 502.201 -173.321 502.201C-173.321 502.194 -173.328 502.186 -173.336 502.186L-175.478 501.061L-222.165 475.285C-222.172 475.285 -222.172 475.285 -222.172 475.285L-224.797 473.859L-271.475 448.105C-271.475 448.097 -271.475 448.098 -271.475 448.098L-274.1 446.599C-274.107 446.592 -274.115 446.592 -274.123 446.585C-274.13 446.585 -274.13 446.577 -274.138 446.577L-290.182 437.807V390.471L-159.006 462.824V510.123H-158.998ZM-158.998 457.226L-288.805 385.641C-288.805 385.641 -288.813 385.641 -288.82 385.641C-288.82 385.641 -288.82 385.633 -288.828 385.626L-288.874 385.604C-288.943 385.567 -289.004 385.524 -289.073 385.494L-290.021 384.99V337.639L-158.998 409.911V457.226ZM-158.807 405.797L-285.056 336.149L-278.155 336.002L-269.8 340.541C-269.677 340.607 -269.555 340.599 -269.433 340.643L-260.519 345.62C-260.519 345.62 -260.519 345.62 -260.512 345.62C-260.512 345.627 -260.512 345.627 -260.504 345.627L-234.697 359.791L-233.687 360.412C-233.679 360.419 -233.664 360.419 -233.649 360.419C-233.634 360.434 -233.618 360.449 -233.603 360.463L-201.828 377.996H-201.821L-192.395 383.148V383.156L-180.467 389.748L-174.82 392.876C-174.79 392.898 -174.767 392.934 -174.728 392.956L-174.055 393.395C-174.04 393.409 -174.025 393.402 -174.009 393.409C-173.986 393.424 -173.971 393.446 -173.948 393.46L-171.423 394.871L-171.393 394.885C-171.385 394.893 -171.385 394.893 -171.377 394.893L-166.297 397.685L-158.554 401.989L-158.807 405.797ZM-156.573 398.679L-161.439 395.974L-156.052 393.058L-150.796 395.931L-156.573 398.679ZM337.82 275.409L-155.402 514.844V514.545L258.624 313.456L337.82 275V275.409ZM338.034 270.79L256.895 310.204L47.3573 411.943C47.3267 411.958 47.3037 411.987 47.2731 412.002L-155.173 510.321V462.882L338.034 223.388V270.79ZM339.549 165.287L335.142 163.19L341.6 157.679C341.63 157.65 341.661 157.643 341.691 157.621C341.714 157.599 341.722 157.577 341.737 157.555L352.173 148.5L362.219 139.92C362.219 139.913 362.219 139.913 362.219 139.913L369.87 133.328L396.358 110.445L397.345 109.707C397.36 109.693 397.368 109.671 397.383 109.656C397.406 109.641 397.429 109.641 397.444 109.627L415.883 93.7239C415.891 93.7239 415.891 93.7239 415.891 93.7239L425.983 85.0051C425.99 85.0051 425.99 84.9978 425.998 84.9978L433.481 78.6176L440.764 78.223L339.549 165.287ZM443.955 179.633L341.86 267.626V220.947L443.955 132.999V179.633ZM444.161 126.845L443.871 127.086C443.848 127.101 443.84 127.123 443.825 127.138C443.809 127.152 443.779 127.16 443.763 127.174L443.228 127.693L341.776 214.925V168.298L444.161 80.2328V126.845Z" fill="#AAAABB"/>
</svg>
