<svg width="121" height="218" viewBox="0 0 121 218" fill="none" xmlns="http://www.w3.org/2000/svg">
<path d="M34.126 179.416L38.0538 181.445L42.0084 175.151L37.5604 172.358L34.126 179.416Z" fill="#FFC09E"/>
<path d="M40.9688 181.561L34.4381 202.161C33.5422 203.87 29.8272 201.892 29.7285 199.962L30.4436 180.254C30.4436 180.254 32.3608 178.282 33.8746 177.951C34.1797 177.883 34.417 178.342 34.6664 178.724C34.9453 179.155 37.3654 177.257 40.9688 181.561Z" fill="#FFD84D"/>
<path d="M80.9889 96.3821C80.8798 95.5097 80.1379 94.8644 79.2587 94.8644L57.8278 94.8641C57.3368 94.8641 56.8709 95.0669 56.5798 95.4622C54.9524 97.6723 50.085 105.872 56.7611 117.787C56.9476 118.12 57.0329 118.51 56.9877 118.889L53.9882 144.023C53.9548 144.303 53.8545 144.57 53.6958 144.803L35.7441 171.141C35.036 172.18 35.6182 173.605 36.8513 173.85L43.6141 175.197C44.2561 175.325 44.916 175.084 45.3255 174.574L66.1242 148.641C66.3361 148.377 66.467 148.057 66.5011 147.72L68.9205 123.819C68.9638 123.391 69.1592 122.987 69.4969 122.721C75.2488 118.184 82.8422 123.963 82.8045 118.305C82.7648 111.244 81.4857 100.356 80.9889 96.3821Z" fill="#190E2C"/>
<path d="M69.1683 194.802L74.0026 194.626L76.6308 187.676L71.7184 185.815L69.1683 194.802Z" fill="#FFC09E"/>
<path d="M76.9349 193.999L78.9581 215.516C78.8013 217.441 74.6095 217.064 73.7642 215.33L66.7363 196.902C66.7363 196.902 67.7339 194.338 68.995 193.443C69.2502 193.263 69.6442 193.592 70.0266 193.846C70.4525 194.132 71.938 191.438 76.9349 193.999Z" fill="#FFD84D"/>
<path d="M77.1501 189.328L71.9547 188.242C70.7598 187.992 69.861 187.002 69.7271 185.786L79.6186 148.227L67.5536 126.316C67.3315 124.279 66.8346 115.893 68.7837 116.531L81.5501 112.404C82.6498 112.763 92.5859 147.29 92.5859 147.29C92.5859 147.29 79.7724 188.588 78.789 189.074C78.3026 189.321 77.7316 189.42 77.1501 189.328Z" fill="#190E2C"/>
<path d="M91.6909 148.14C90.4432 147.008 89.0227 146.896 88.4553 147.467C87.9195 148.009 88.1134 149.211 88.6808 149.874C89.6642 151.019 92.1033 150.935 93.3722 149.578C94.5248 148.344 94.4296 146.37 93.6154 145.179C92.3324 143.297 89.3294 143.462 87.4965 144.361C85.6038 145.292 83.7639 147.6 84.3772 149.832C85.1808 152.757 89.495 152.993 89.9286 153.011C90.2705 153.025 93.7916 153.11 95.9523 150.188C97.704 147.823 97.2917 145.2 97.2106 144.731" stroke="black" stroke-width="0.412251" stroke-miterlimit="10"/>
<path d="M63.4185 148.278C64.5816 146.998 66.0268 146.741 66.6612 147.27C67.2639 147.77 67.1829 149.021 66.6647 149.754C65.7695 151.023 63.2705 151.175 61.8394 149.913C60.5388 148.768 60.4437 146.737 61.1592 145.44C62.2871 143.389 65.3747 143.262 67.3344 144.002C69.3611 144.767 71.4689 146.949 71.06 149.289C70.5243 152.359 66.136 153.025 65.6954 153.085C65.3465 153.135 61.7548 153.565 59.2558 150.791C57.2327 148.546 57.3948 145.824 57.4336 145.335" stroke="black" stroke-width="0.412251" stroke-miterlimit="10"/>
<path d="M76.5135 29.8388C76.5135 29.8388 81.0887 62.1863 79.1986 62.8175C77.3084 63.4521 66.9228 60.3098 66.9228 60.3098L59.5328 42.3704L67.2401 28.6412L76.5135 29.8388Z" fill="black"/>
<path d="M67.6643 56.2421L69.1758 53.5126C69.1758 53.5126 60.4824 51.6532 59.0563 52.8917C57.6302 54.1336 59.4896 56.2421 59.4896 56.2421H67.6643Z" fill="#FFD84D"/>
<path d="M30.5795 73.7625L55.2231 68.2286C56.9768 67.5428 57.8468 65.5639 57.161 63.8102C56.4753 62.0566 54.278 58.6174 52.5244 59.3032L32.3297 65.755L15.9803 51.0568C14.6701 49.7023 13.3327 50.2926 11.9782 51.6027C10.6237 52.9129 11.9952 54.2162 13.3054 55.5707L30.5795 73.7625Z" fill="#FFC09E"/>
<path d="M64.7688 53.7618C64.3321 53.7857 54.3559 57.6343 51.4319 61.1826C48.508 64.7309 53.0321 72.3904 54.274 79.1936C55.5159 85.9968 54.5858 94.0332 57.153 95.2889C59.7201 96.5446 71.6815 98.3173 78.3693 95.2446C81.5389 88.3288 79.8763 80.9916 80.5144 78.9445C83.6362 68.9308 84.4209 57.6274 84.4209 57.6274L69.6478 54.4825L64.7688 53.7618Z" fill="#FFD84D"/>
<path d="M70.3888 64.905C69.9045 64.905 69.5119 64.5125 69.5119 64.0282C69.5119 63.5439 69.9045 63.1514 70.3888 63.1514C70.873 63.1514 71.2656 63.5439 71.2656 64.0282C71.2656 64.5125 70.873 64.905 70.3888 64.905Z" fill="#121212"/>
<path d="M69.7032 71.3021C69.219 71.3021 68.8264 70.9096 68.8264 70.4253C68.8264 69.941 69.219 69.5485 69.7032 69.5485C70.1875 69.5485 70.5801 69.941 70.5801 70.4253C70.5801 70.9096 70.1875 71.3021 69.7032 71.3021Z" fill="#121212"/>
<path d="M77.2651 33.2912C77.2651 33.2912 77.5755 26.1161 76.088 23.5743C74.6004 21.0325 64.2831 20.4832 61.5945 23.315C61.5945 23.315 57.5788 23.3184 55.1428 28.8899C52.8841 34.0623 52.253 47.1876 63.3448 47.2831L77.2651 33.2912Z" fill="black"/>
<path d="M68.8828 50.3223L67.4123 52.4889L65.7337 53.0689L62.6801 52.9392V49.077L68.8828 50.3223Z" fill="black"/>
<path d="M66.4156 48.1975C66.4156 48.1975 68.9028 49.8932 71.4036 48.5967C72.6831 47.9314 74.6449 44.6868 75.5217 40.8758C76.7159 35.6966 75.7333 31.6263 74.9451 31.2715C73.6862 30.7051 65.6615 27.4707 62.1201 33.8235C58.582 40.1763 59.7284 40.6813 59.7284 40.6813C59.7284 40.6813 58.8345 46.7236 60.1275 46.0788C60.1275 46.0788 60.4756 49.3269 60.9669 50.6438C61.2842 51.49 61.2227 56.8295 64.0443 57.1979C65.6308 57.4027 67.0774 57.6347 67.5585 55.9151C68.1351 53.8509 67.7086 51.1078 67.7086 51.1078L66.4156 48.1975Z" fill="#FFC09E"/>
<path d="M71.2025 36.0515C71.2946 38.5558 72.4854 41.4695 72.1681 41.7527C71.6188 42.2474 70.1756 42.1416 70.0561 42.0802" stroke="black" stroke-width="0.306983" stroke-miterlimit="10" stroke-linecap="round"/>
<path d="M65.4713 36.4028C67.0612 35.3417 67.9551 35.7886 67.9551 35.7886" stroke="black" stroke-width="0.484929" stroke-miterlimit="10" stroke-linecap="round"/>
<path d="M75.6729 35.9799C74.0454 35.608 73.3869 35.8434 73.3869 35.8434" stroke="black" stroke-width="0.484929" stroke-miterlimit="10" stroke-linecap="round"/>
<path d="M74.4008 37.9316C74.4349 38.2182 72.9303 38.399 72.8962 38.1124C72.8621 37.8224 73.1691 37.5461 73.5888 37.4983C74.0016 37.4471 74.3667 37.6416 74.4008 37.9316Z" fill="black"/>
<path d="M67.9076 38.0745C67.9417 38.3611 66.4371 38.542 66.403 38.2554C66.3689 37.9654 66.676 37.689 67.0956 37.6412C67.5085 37.5901 67.8735 37.7845 67.9076 38.0745Z" fill="black"/>
<path d="M70.7771 46.5532C70.1835 46.6044 69.0473 44.6153 68.9893 44.5505L72.2783 44.4618C71.9337 45.6525 71.2138 46.5123 70.7771 46.5532Z" fill="white"/>
<path d="M119.198 19.2751C120.604 16.2215 120.832 9.1454 119.078 7.96832C118.031 7.67831 117.451 11.9636 117.451 11.9636C117.451 11.9636 118.15 6.36476 116.786 6.27946C115.421 6.19417 114.906 11.7179 114.906 11.7179C114.906 11.7179 115.254 5.97922 113.998 5.88028C112.743 5.78134 111.31 15.3345 111.31 15.3345C111.31 15.3345 109.164 12.5675 108.457 12.837C106.502 13.5842 108.744 17.0608 109 18.7395C109.379 21.2335 109.259 22.5129 109.45 24.212C109.768 27.0439 114.551 25.6962 116.799 23.267C117.383 22.6358 118.84 20.0564 119.198 19.2751Z" fill="#FFC09E"/>
<path d="M7.69228 52.7372C7.61278 52.5908 -0.152655 45.2144 0.763633 42.8672C1.44562 42.043 4.32838 45.1768 4.32838 45.1768C4.32838 45.1768 0.608825 41.0472 1.66318 40.2062C2.71754 39.3652 6.24044 43.5408 6.24044 43.5408C6.24044 43.5408 2.73011 39.1058 3.68823 38.3193C4.64636 37.5327 11.1817 44.4404 11.1817 44.4404C11.1817 44.4404 11.3533 40.997 12.0813 40.8171C14.0812 40.3192 15.1523 45.5115 15.8385 47.0345C16.0518 47.5114 18.6463 53.2438 17.5626 54.0303C16.4079 54.8671 15.554 54.6158 14.2402 55.3187C12.8302 56.0676 7.69228 52.7372 7.69228 52.7372Z" fill="#FFC09E"/>
<path d="M88.4734 64.1475C88.5519 64.1134 88.6303 64.0759 88.7088 64.0383L106.914 54.6115L117.737 19.8449C118.296 18.0469 117.293 16.1328 115.492 15.5733C113.694 15.0138 111.78 16.0168 111.22 17.8183L101.247 49.8622L85.5733 57.9789C83.9015 58.8455 83.2465 60.9029 84.1131 62.5781C84.9353 64.1714 86.8493 64.8401 88.4734 64.1475Z" fill="#FFC09E"/>
<path d="M70.5984 55.7899C70.5984 55.7899 85.137 56.2145 87.9483 55.1637C91.7457 53.7444 95.0518 53.0654 95.0518 53.0654L93.6563 67.4872L80.9882 68.231L78.4907 61.6155L70.5984 55.7899Z" fill="#FFD84D"/>
<path d="M61.5654 54.3528C61.5654 54.3528 56.0211 55.8082 52.9202 56.5906C48.2044 57.7806 43.3019 61.6746 43.3019 61.6746L46.8434 74.6054L55.8574 71.3062L61.5654 54.3528Z" fill="#FFD84D"/>
<path d="M70.0788 52.4553L67.4108 52.4894L65.2579 58.89L70.1846 56.2425L70.0788 52.4553Z" fill="#FFD84D"/>
<path d="M62.0521 52.4553L64.7236 52.4894L66.873 58.89L61.9498 56.2425L62.0521 52.4553Z" fill="#FFD84D"/>
<path d="M54.729 52.3365C54.8075 53.1451 54.2684 63.1485 55.0804 63.1895C57.0354 63.2816 61.1637 61.5723 63.1016 60.2553C64.7223 59.1533 64.0672 42.4797 63.883 40.1119C63.7021 37.7543 65.4012 32.6912 68.6015 33.0187C71.8018 33.3462 79.7172 34.7041 80.7783 31.5925C82.7504 25.8129 74.5654 23.4622 74.5654 23.4622C74.5654 23.4622 66.1996 24.3254 64.8519 24.6665C63.9137 24.9054 59.4442 28.034 56.8102 29.9173C55.7219 30.6952 55.3943 33.7283 53.8556 36.5943L54.729 52.3365Z" fill="black"/>
</svg>
