<svg width="169" height="284" viewBox="0 0 169 284" fill="none" xmlns="http://www.w3.org/2000/svg">
<path d="M43.5074 235.047L48.5585 237.656L53.644 229.563L47.924 225.97L43.5074 235.047Z" fill="#FFC09E"/>
<path d="M52.3068 237.806L43.9083 264.297C42.7562 266.496 37.9787 263.952 37.8518 261.469L38.7714 236.124C38.7714 236.124 41.2369 233.588 43.1836 233.163C43.576 233.076 43.8812 233.666 44.2019 234.157C44.5606 234.711 47.6729 232.27 52.3068 237.806Z" fill="#FFD84D"/>
<path d="M103.773 128.266C103.632 127.144 102.678 126.314 101.548 126.314L73.9876 126.314C73.3562 126.314 72.757 126.575 72.3826 127.083C70.2899 129.925 64.0305 140.469 72.6158 155.792C72.8557 156.22 72.9654 156.722 72.9073 157.209L69.0499 189.532C69.007 189.891 68.878 190.236 68.6739 190.535L45.588 224.406C44.6774 225.742 45.4262 227.574 47.0119 227.89L55.7089 229.621C56.5345 229.786 57.3831 229.477 57.9098 228.82L84.6567 195.471C84.9292 195.131 85.0976 194.72 85.1415 194.287L88.2528 163.55C88.3085 163 88.5598 162.48 88.994 162.138C96.391 156.303 106.156 163.734 106.108 156.458C106.057 147.378 104.412 133.376 103.773 128.266Z" fill="#190E2C"/>
<path d="M88.5716 254.833L94.7886 254.608L98.1684 245.669L91.851 243.276L88.5716 254.833Z" fill="#FFC09E"/>
<path d="M98.56 253.8L101.162 281.472C100.96 283.947 95.5696 283.463 94.4826 281.232L85.4447 257.534C85.4447 257.534 86.7275 254.237 88.3493 253.086C88.6775 252.854 89.1842 253.277 89.676 253.604C90.2236 253.971 92.1341 250.507 98.56 253.8Z" fill="#FFD84D"/>
<path d="M98.8362 247.794L92.1549 246.398C90.6183 246.076 89.4625 244.802 89.2903 243.238L102.011 194.939L86.4952 166.761C86.2096 164.141 85.5705 153.357 88.0771 154.178L104.495 148.87C105.909 149.332 118.687 193.733 118.687 193.733C118.687 193.733 102.209 246.842 100.944 247.467C100.318 247.785 99.5841 247.912 98.8362 247.794Z" fill="#190E2C"/>
<path d="M117.536 194.826C115.931 193.371 114.105 193.226 113.375 193.96C112.686 194.658 112.935 196.204 113.665 197.056C114.93 198.529 118.066 198.42 119.698 196.675C121.18 195.089 121.058 192.55 120.011 191.018C118.361 188.598 114.499 188.811 112.142 189.967C109.708 191.163 107.342 194.132 108.13 197.002C109.164 200.764 114.712 201.067 115.27 201.09C115.709 201.108 120.237 201.217 123.016 197.459C125.269 194.418 124.738 191.046 124.634 190.443" stroke="black" stroke-width="0.530153" stroke-miterlimit="10"/>
<path d="M81.1777 195.003C82.6735 193.358 84.532 193.027 85.3478 193.707C86.1229 194.351 86.0187 195.96 85.3524 196.903C84.2011 198.534 80.9874 198.729 79.1471 197.106C77.4745 195.633 77.3521 193.022 78.2723 191.354C79.7227 188.716 83.6934 188.553 86.2136 189.505C88.8199 190.489 91.5305 193.294 91.0047 196.304C90.3157 200.252 84.6725 201.109 84.1059 201.186C83.6571 201.249 79.0383 201.802 75.8246 198.235C73.2228 195.348 73.4313 191.849 73.4812 191.218" stroke="black" stroke-width="0.530153" stroke-miterlimit="10"/>
<path d="M98.0183 42.6917C98.0183 42.6917 103.902 84.2905 101.471 85.1022C99.0406 85.9183 85.6848 81.8773 85.6848 81.8773L76.1813 58.8074L86.0928 41.1517L98.0183 42.6917Z" fill="black"/>
<path d="M86.638 76.6461L88.5817 73.136C88.5817 73.136 77.4021 70.7448 75.5681 72.3375C73.734 73.9346 76.1253 76.6461 76.1253 76.6461H86.638Z" fill="#FFD84D"/>
<path d="M38.9468 99.1775L70.6384 92.0608C72.8937 91.1789 74.0125 88.6341 73.1306 86.3789C72.2487 84.1236 69.4231 79.7009 67.1679 80.5828L41.1977 88.8798L20.1723 69.978C18.4875 68.2362 16.7675 68.9952 15.0257 70.68C13.2838 72.3649 15.0476 74.0409 16.7324 75.7828L38.9468 99.1775Z" fill="#FFC09E"/>
<path d="M82.9142 73.4566C82.3525 73.4873 69.5232 78.4366 65.763 82.9997C62.0029 87.5628 67.8208 97.4129 69.4179 106.162C71.015 114.911 69.8189 125.245 73.1203 126.86C76.4216 128.475 91.8039 130.755 100.404 126.803C104.48 117.91 102.342 108.474 103.163 105.841C107.178 92.9639 108.187 78.4278 108.187 78.4278L89.1885 74.3834L82.9142 73.4566Z" fill="#FFD84D"/>
<path d="M90.1415 87.7867C89.5187 87.7867 89.0139 87.2818 89.0139 86.659C89.0139 86.0363 89.5187 85.5314 90.1415 85.5314C90.7643 85.5314 91.2691 86.0363 91.2691 86.659C91.2691 87.2818 90.7643 87.7867 90.1415 87.7867Z" fill="#121212"/>
<path d="M89.2603 96.0133C88.6375 96.0133 88.1327 95.5085 88.1327 94.8857C88.1327 94.263 88.6375 93.7581 89.2603 93.7581C89.883 93.7581 90.3879 94.263 90.3879 94.8857C90.3879 95.5085 89.883 96.0133 89.2603 96.0133Z" fill="#121212"/>
<path d="M98.9849 47.1314C98.9849 47.1314 99.3842 37.9042 97.4712 34.6355C95.5582 31.3667 82.2901 30.6603 78.8327 34.302C78.8327 34.302 73.6685 34.3064 70.5357 41.4714C67.6311 48.123 66.8194 65.002 81.0835 65.1249L98.9849 47.1314Z" fill="black"/>
<path d="M88.2048 69.0335L86.3138 71.8196L84.1551 72.5655L80.2282 72.3988V67.432L88.2048 69.0335Z" fill="black"/>
<path d="M85.0321 66.3009C85.0321 66.3009 88.2307 68.4815 91.4468 66.8143C93.0921 65.9587 95.615 61.7861 96.7426 56.8851C98.2783 50.2248 97.0146 44.9904 96.0011 44.534C94.3821 43.8057 84.0624 39.6463 79.5081 47.816C74.9582 55.9857 76.4324 56.635 76.4324 56.635C76.4324 56.635 75.2829 64.4055 76.9458 63.5762C76.9458 63.5762 77.3933 67.7532 78.0251 69.4468C78.4332 70.5349 78.3542 77.4015 81.9827 77.8754C84.023 78.1386 85.8833 78.437 86.502 76.2256C87.2435 73.5712 86.695 70.0435 86.695 70.0435L85.0321 66.3009Z" fill="#FFC09E"/>
<path d="M91.1887 50.6812C91.3072 53.9017 92.8384 57.6487 92.4304 58.0129C91.724 58.6491 89.868 58.5131 89.7145 58.4341" stroke="black" stroke-width="0.394779" stroke-miterlimit="10" stroke-linecap="round"/>
<path d="M83.8173 51.1329C85.8619 49.7684 87.0115 50.3431 87.0115 50.3431" stroke="black" stroke-width="0.623616" stroke-miterlimit="10" stroke-linecap="round"/>
<path d="M96.9368 50.5891C94.8439 50.1109 93.9971 50.4136 93.9971 50.4136" stroke="black" stroke-width="0.623616" stroke-miterlimit="10" stroke-linecap="round"/>
<path d="M95.301 53.099C95.3448 53.4675 93.4099 53.7001 93.366 53.3315C93.3222 52.9586 93.717 52.6032 94.2567 52.5417C94.7876 52.4759 95.2571 52.726 95.301 53.099Z" fill="black"/>
<path d="M86.9508 53.2827C86.9947 53.6513 85.0597 53.8838 85.0159 53.5153C84.972 53.1423 85.3669 52.7869 85.9066 52.7255C86.4375 52.6597 86.9069 52.9098 86.9508 53.2827Z" fill="black"/>
<path d="M90.6409 64.1864C89.8774 64.2522 88.4164 61.6943 88.3418 61.6109L92.5714 61.4968C92.1283 63.0281 91.2025 64.1338 90.6409 64.1864Z" fill="white"/>
<path d="M152.911 29.1067C154.718 25.1798 155.012 16.08 152.757 14.5663C151.41 14.1933 150.664 19.7041 150.664 19.7041C150.664 19.7041 151.564 12.5041 149.809 12.3944C148.054 12.2847 147.391 19.3882 147.391 19.3882C147.391 19.3882 147.839 12.0083 146.224 11.881C144.609 11.7538 142.766 24.0391 142.766 24.0391C142.766 24.0391 140.007 20.4807 139.098 20.8274C136.584 21.7882 139.467 26.2592 139.796 28.4179C140.283 31.6252 140.13 33.2706 140.375 35.4556C140.783 39.0973 146.935 37.3642 149.826 34.2402C150.576 33.4285 152.45 30.1115 152.911 29.1067Z" fill="#FFC09E"/>
<path d="M9.51486 72.1389C9.41263 71.9506 -0.573692 62.4647 0.60465 59.4462C1.48168 58.3862 5.1889 62.4162 5.1889 62.4162C5.1889 62.4162 0.405567 57.1056 1.76147 56.0241C3.11737 54.9427 7.6478 60.3124 7.6478 60.3124C7.6478 60.3124 3.13352 54.6091 4.36567 53.5975C5.59782 52.586 14.0022 61.4693 14.0022 61.4693C14.0022 61.4693 14.2229 57.0411 15.1591 56.8097C17.731 56.1694 19.1084 62.8467 19.9908 64.8052C20.2652 65.4186 23.6016 72.7903 22.2081 73.8019C20.723 74.878 19.6249 74.5548 17.9354 75.4587C16.1222 76.4218 9.51486 72.1389 9.51486 72.1389Z" fill="#FFC09E"/>
<path d="M113.399 86.8126C113.5 86.7687 113.601 86.7204 113.702 86.6722L137.114 74.5492L151.031 29.8396C151.751 27.5274 150.461 25.0659 148.144 24.3464C145.832 23.6268 143.37 24.9167 142.651 27.2334L129.826 68.4417L109.669 78.8798C107.519 79.9942 106.677 82.6399 107.791 84.7943C108.849 86.8433 111.31 87.7032 113.399 86.8126Z" fill="#FFC09E"/>
<path d="M90.4116 76.0647C90.4116 76.0647 109.108 76.6108 112.724 75.2594C117.607 73.4342 121.859 72.5611 121.859 72.5611L120.064 91.1074L103.773 92.0639L100.561 83.5564L90.4116 76.0647Z" fill="#FFD84D"/>
<path d="M78.7952 74.2165C78.7952 74.2165 71.6652 76.0881 67.6775 77.0944C61.6129 78.6246 55.3084 83.6323 55.3084 83.6323L59.8627 100.261L71.4547 96.0184L78.7952 74.2165Z" fill="#FFD84D"/>
<path d="M89.7433 71.7764L86.3122 71.8203L83.5436 80.0514L89.8793 76.6466L89.7433 71.7764Z" fill="#FFD84D"/>
<path d="M79.4207 71.7764L82.8562 71.8203L85.6204 80.0514L79.2891 76.6466L79.4207 71.7764Z" fill="#FFD84D"/>
<path d="M70.0039 71.6235C70.1048 72.6634 69.4116 85.5278 70.4558 85.5804C72.9699 85.6989 78.2789 83.5007 80.7711 81.8071C82.8552 80.3899 82.0127 58.9477 81.7758 55.9027C81.5433 52.8709 83.7283 46.3597 87.8439 46.7809C91.9594 47.2021 102.139 48.9484 103.503 44.9469C106.039 37.5143 95.5134 34.4913 95.5134 34.4913C95.5134 34.4913 84.755 35.6013 83.0219 36.0401C81.8153 36.3472 76.0676 40.3706 72.6803 42.7926C71.2807 43.793 70.8595 47.6935 68.8807 51.3791L70.0039 71.6235Z" fill="black"/>
</svg>
