<svg width="19" height="14" viewBox="0 0 19 14" fill="none" xmlns="http://www.w3.org/2000/svg">
<path d="M16.5512 3.48526C16.562 3.63715 16.562 3.78904 16.562 3.94234C16.562 8.61314 12.9022 14 6.21013 14V13.9972C4.23328 14 2.29749 13.4498 0.633301 12.4125C0.920752 12.4461 1.20964 12.4629 1.49926 12.4636C3.13751 12.465 4.72893 11.9309 6.01778 10.9475C4.46093 10.9188 3.09572 9.93256 2.6188 8.49275C3.16416 8.59494 3.7261 8.57394 4.26138 8.43185C2.56405 8.09867 1.34292 6.64976 1.34292 4.96707C1.34292 4.95167 1.34292 4.93697 1.34292 4.92227C1.84866 5.19596 2.41492 5.34785 2.99414 5.36465C1.39551 4.32661 0.902741 2.26034 1.86811 0.644843C3.71529 2.8532 6.44067 4.19572 9.36633 4.33781C9.07312 3.11009 9.47367 1.82357 10.4189 0.960523C11.8842 -0.377792 14.1889 -0.309197 15.5663 1.11381C16.3811 0.957723 17.1621 0.667242 17.8767 0.255668C17.6051 1.07392 17.0367 1.76897 16.2774 2.21064C16.9985 2.12805 17.7031 1.94046 18.3666 1.65418C17.8782 2.36533 17.2629 2.9848 16.5512 3.48526Z" fill="white"/>
</svg>
