<svg width="48" height="48" viewBox="0 0 48 48" fill="none" xmlns="http://www.w3.org/2000/svg">
<path opacity="0.4" d="M24 48C37.1294 48 48 37.1059 48 24C48 10.8706 37.1059 0 23.9765 0C10.8706 0 0 10.8706 0 24C0 37.1059 10.8941 48 24 48ZM15.6941 34.2588C14.6353 34.2588 13.7647 33.3647 13.7647 32.2824C13.7647 31.7647 13.9765 31.2941 14.3294 30.9176L21.2235 24.0235L14.3294 17.1294C13.9765 16.7529 13.7647 16.2824 13.7647 15.7647C13.7647 14.6824 14.6353 13.8353 15.6941 13.8353C16.2588 13.8353 16.7059 14.0235 17.0588 14.4L23.9765 21.2941L30.9647 14.3765C31.3647 13.9765 31.7882 13.7882 32.3059 13.7882C33.3647 13.7882 34.2353 14.6588 34.2353 15.7176C34.2353 16.2588 34.0706 16.6824 33.6706 17.1059L26.7529 24.0235L33.6471 30.8941C34.0235 31.2941 34.2118 31.7412 34.2118 32.2824C34.2118 33.3647 33.3412 34.2588 32.2588 34.2588C31.7176 34.2588 31.2471 34.0235 30.8706 33.6706L23.9765 26.7765L17.1294 33.6706C16.7529 34.0471 16.2588 34.2588 15.6941 34.2588Z" fill="white"/>
</svg>
